<?xml version="1.0" encoding="utf-8"?>
<svg width="500" zoomAndPan="magnify" viewBox="0 0 375 374.999991" height="500" preserveAspectRatio="xMidYMid meet" version="1.0" xmlns="http://www.w3.org/2000/svg">
  <defs>
    <g/>
  </defs>
  <rect x="-37.5" width="450" fill="#ffffff" y="-37.499999" height="449.999989" fill-opacity="1"/>
  <rect x="109.492" width="156.501" fill="#e8e8e8" y="160.43" height="49.774" fill-opacity="1" style=""/>
  <g fill="#000000" fill-opacity="1">
    <g transform="translate(119.582584, 191.834025)">
      <g>
        <path d="M 5.203125 0.1875 C 4.648438 0.1875 4.375 0.03125 4.375 -0.28125 C 4.375 -0.519531 4.53125 -0.640625 4.84375 -0.640625 L 5.453125 -0.578125 C 5.960938 -0.578125 6.300781 -0.863281 6.46875 -1.4375 C 6.625 -1.914062 6.703125 -2.78125 6.703125 -4.03125 L 6.703125 -15.890625 L 6.359375 -15.890625 C 4.878906 -15.890625 3.695312 -15.738281 2.8125 -15.4375 C 2.207031 -15.21875 1.796875 -14.84375 1.578125 -14.3125 C 1.410156 -13.914062 1.238281 -13.71875 1.0625 -13.71875 C 0.820312 -13.71875 0.703125 -13.863281 0.703125 -14.15625 C 0.703125 -14.238281 0.71875 -14.332031 0.75 -14.4375 C 0.789062 -14.550781 0.835938 -14.6875 0.890625 -14.84375 C 1.023438 -15.25 1.101562 -15.671875 1.125 -16.109375 C 1.15625 -16.546875 1.207031 -16.835938 1.28125 -16.984375 C 1.351562 -17.140625 1.453125 -17.21875 1.578125 -17.21875 C 1.703125 -17.21875 1.8125 -17.207031 1.90625 -17.1875 C 2.007812 -17.164062 2.160156 -17.140625 2.359375 -17.109375 C 2.867188 -17.046875 3.507812 -17.015625 4.28125 -17.015625 L 12.328125 -17.015625 C 12.953125 -17.015625 13.40625 -17.046875 13.6875 -17.109375 C 13.976562 -17.179688 14.1875 -17.21875 14.3125 -17.21875 C 14.59375 -17.21875 14.734375 -17.085938 14.734375 -16.828125 C 14.734375 -16.691406 14.707031 -16.53125 14.65625 -16.34375 C 14.519531 -15.925781 14.429688 -15.566406 14.390625 -15.265625 C 14.359375 -14.960938 14.328125 -14.71875 14.296875 -14.53125 C 14.265625 -14.34375 14.226562 -14.191406 14.1875 -14.078125 C 14.113281 -13.890625 14.007812 -13.796875 13.875 -13.796875 C 13.738281 -13.796875 13.648438 -13.84375 13.609375 -13.9375 C 13.578125 -14.039062 13.539062 -14.234375 13.5 -14.515625 C 13.457031 -14.796875 13.382812 -15.023438 13.28125 -15.203125 C 13.175781 -15.378906 13.039062 -15.515625 12.875 -15.609375 C 12.570312 -15.796875 12.085938 -15.890625 11.421875 -15.890625 L 8.703125 -15.890625 L 8.703125 -4.03125 C 8.703125 -2.75 8.757812 -1.921875 8.875 -1.546875 C 8.988281 -1.179688 9.125 -0.925781 9.28125 -0.78125 C 9.445312 -0.644531 9.664062 -0.578125 9.9375 -0.578125 L 10.546875 -0.640625 C 10.847656 -0.640625 11 -0.519531 11 -0.28125 C 11 0.03125 10.726562 0.1875 10.1875 0.1875 C 9.914062 0.1875 9.625 0.160156 9.3125 0.109375 C 8.289062 -0.046875 7.414062 -0.0703125 6.6875 0.03125 C 5.96875 0.132812 5.472656 0.1875 5.203125 0.1875 Z M 5.203125 0.1875 "/>
      </g>
    </g>
  </g>
  <g fill="#000000" fill-opacity="1">
    <g transform="translate(148.974391, 191.834025)">
      <g>
        <path d="M 1.53125 0.1875 C 1.0625 0.1875 0.828125 0.03125 0.828125 -0.28125 C 0.828125 -0.519531 0.976562 -0.640625 1.28125 -0.640625 L 1.90625 -0.578125 C 2.375 -0.578125 2.695312 -0.78125 2.875 -1.1875 C 3.0625 -1.65625 3.15625 -2.585938 3.15625 -3.984375 L 3.15625 -12.984375 C 3.15625 -14.367188 3.085938 -15.242188 2.953125 -15.609375 C 2.816406 -15.972656 2.664062 -16.195312 2.5 -16.28125 C 2.34375 -16.375 2.144531 -16.421875 1.90625 -16.421875 L 1.28125 -16.375 C 0.976562 -16.375 0.828125 -16.5 0.828125 -16.75 C 0.828125 -17.0625 1.050781 -17.21875 1.5 -17.21875 C 1.957031 -17.21875 2.332031 -17.207031 2.625 -17.1875 C 2.914062 -17.164062 3.207031 -17.140625 3.5 -17.109375 C 4.289062 -17.046875 4.910156 -17.015625 5.359375 -17.015625 C 5.816406 -17.015625 6.296875 -17.023438 6.796875 -17.046875 C 7.304688 -17.066406 7.875 -17.085938 8.5 -17.109375 C 10.15625 -17.179688 11.300781 -17.21875 11.9375 -17.21875 C 12.582031 -17.21875 12.9375 -17.175781 13 -17.09375 C 13.070312 -17.019531 13.109375 -16.914062 13.109375 -16.78125 C 13.109375 -16.65625 13.109375 -16.53125 13.109375 -16.40625 C 13.109375 -16.289062 13.101562 -16.160156 13.09375 -16.015625 C 13.082031 -15.828125 13.054688 -15.539062 13.015625 -15.15625 C 12.972656 -14.769531 12.921875 -14.507812 12.859375 -14.375 C 12.796875 -14.25 12.707031 -14.1875 12.59375 -14.1875 C 12.488281 -14.1875 12.414062 -14.210938 12.375 -14.265625 C 12.332031 -14.316406 12.273438 -14.441406 12.203125 -14.640625 C 12.128906 -14.835938 12 -15.023438 11.8125 -15.203125 C 11.632812 -15.390625 11.351562 -15.546875 10.96875 -15.671875 C 10.207031 -15.898438 8.796875 -16.015625 6.734375 -16.015625 L 5.609375 -16.015625 C 5.410156 -16.015625 5.28125 -15.984375 5.21875 -15.921875 C 5.164062 -15.859375 5.140625 -15.722656 5.140625 -15.515625 L 5.140625 -10.171875 C 6.148438 -10.046875 6.984375 -9.984375 7.640625 -9.984375 C 8.304688 -9.984375 8.78125 -9.988281 9.0625 -10 C 9.351562 -10.007812 9.59375 -10.035156 9.78125 -10.078125 C 10.101562 -10.140625 10.335938 -10.289062 10.484375 -10.53125 C 10.773438 -10.976562 11.007812 -11.203125 11.1875 -11.203125 C 11.414062 -11.203125 11.53125 -11.082031 11.53125 -10.84375 L 11.078125 -9.046875 L 11.140625 -8.078125 C 11.140625 -7.460938 10.992188 -7.15625 10.703125 -7.15625 C 10.453125 -7.15625 10.328125 -7.316406 10.328125 -7.640625 C 10.328125 -7.972656 10.304688 -8.21875 10.265625 -8.375 C 10.234375 -8.539062 10.128906 -8.671875 9.953125 -8.765625 C 9.679688 -8.898438 9.019531 -8.96875 7.96875 -8.96875 C 6.925781 -8.96875 5.984375 -8.921875 5.140625 -8.828125 L 5.140625 -5.8125 C 5.140625 -3.945312 5.179688 -2.40625 5.265625 -1.1875 C 5.953125 -1.03125 6.695312 -0.953125 7.5 -0.953125 C 8.300781 -0.953125 8.988281 -0.972656 9.5625 -1.015625 C 10.132812 -1.054688 10.628906 -1.140625 11.046875 -1.265625 C 11.867188 -1.515625 12.472656 -1.984375 12.859375 -2.671875 C 13.023438 -2.984375 13.191406 -3.140625 13.359375 -3.140625 C 13.535156 -3.140625 13.625 -3.015625 13.625 -2.765625 C 13.625 -2.660156 13.59375 -2.53125 13.53125 -2.375 C 13.46875 -2.15625 13.367188 -1.828125 13.234375 -1.390625 C 13.109375 -0.953125 13.007812 -0.632812 12.9375 -0.4375 C 12.875 -0.25 12.800781 -0.101562 12.71875 0 C 12.59375 0.164062 12.34375 0.25 11.96875 0.25 C 11.59375 0.25 11.234375 0.242188 10.890625 0.234375 C 10.546875 0.234375 10.179688 0.234375 9.796875 0.234375 C 9.359375 0.210938 8.675781 0.175781 7.75 0.125 C 5.445312 0.0195312 4.097656 -0.015625 3.703125 0.015625 C 3.304688 0.046875 3.003906 0.0703125 2.796875 0.09375 C 2.597656 0.113281 2.398438 0.132812 2.203125 0.15625 C 2.015625 0.175781 1.789062 0.1875 1.53125 0.1875 Z M 1.53125 0.1875 "/>
      </g>
    </g>
  </g>
  <g fill="#000000" fill-opacity="1">
    <g transform="translate(177.578955, 191.834025)">
      <g>
        <path d="M 2.828125 0 C 2.398438 0 1.992188 0.03125 1.609375 0.09375 C 1.234375 0.15625 0.828125 0.1875 0.390625 0.1875 C -0.0351562 0.1875 -0.25 0.046875 -0.25 -0.234375 C -0.25 -0.515625 -0.0507812 -0.65625 0.34375 -0.65625 C 0.757812 -0.65625 1.054688 -0.734375 1.234375 -0.890625 C 1.515625 -1.148438 1.796875 -1.578125 2.078125 -2.171875 C 2.359375 -2.765625 2.617188 -3.316406 2.859375 -3.828125 C 3.097656 -4.347656 3.375 -4.953125 3.6875 -5.640625 C 4.007812 -6.328125 4.359375 -7.097656 4.734375 -7.953125 C 5.109375 -8.804688 5.503906 -9.710938 5.921875 -10.671875 C 7.003906 -13.179688 7.71875 -14.867188 8.0625 -15.734375 C 8.40625 -16.597656 8.597656 -17.078125 8.640625 -17.171875 C 8.679688 -17.265625 8.722656 -17.351562 8.765625 -17.4375 C 8.867188 -17.613281 8.957031 -17.703125 9.03125 -17.703125 C 9.113281 -17.703125 9.179688 -17.691406 9.234375 -17.671875 C 9.285156 -17.648438 9.335938 -17.609375 9.390625 -17.546875 C 9.515625 -17.378906 9.640625 -17.140625 9.765625 -16.828125 C 9.898438 -16.515625 10.070312 -16.085938 10.28125 -15.546875 C 10.5 -15.003906 10.75 -14.390625 11.03125 -13.703125 C 11.3125 -13.015625 11.609375 -12.273438 11.921875 -11.484375 C 12.234375 -10.703125 12.546875 -9.914062 12.859375 -9.125 C 13.179688 -8.34375 13.492188 -7.582031 13.796875 -6.84375 C 14.097656 -6.113281 14.363281 -5.453125 14.59375 -4.859375 C 15.320312 -3.085938 15.785156 -2.03125 15.984375 -1.6875 C 16.191406 -1.34375 16.363281 -1.101562 16.5 -0.96875 C 16.71875 -0.757812 17.03125 -0.65625 17.4375 -0.65625 C 17.851562 -0.65625 18.0625 -0.515625 18.0625 -0.234375 C 18.0625 0.046875 17.796875 0.1875 17.265625 0.1875 C 17.035156 0.1875 16.835938 0.175781 16.671875 0.15625 C 16.503906 0.132812 16.335938 0.117188 16.171875 0.109375 C 15.679688 0.0351562 15.242188 0 14.859375 0 L 12.421875 0.1875 C 11.867188 0.1875 11.59375 0.03125 11.59375 -0.28125 C 11.59375 -0.53125 11.742188 -0.65625 12.046875 -0.65625 L 12.8125 -0.578125 C 13.132812 -0.578125 13.34375 -0.644531 13.4375 -0.78125 C 13.539062 -0.914062 13.59375 -1.09375 13.59375 -1.3125 C 13.59375 -1.707031 13.425781 -2.320312 13.09375 -3.15625 L 12.03125 -5.796875 L 4.984375 -5.796875 C 4.785156 -5.296875 4.597656 -4.832031 4.421875 -4.40625 C 4.253906 -3.976562 4.097656 -3.566406 3.953125 -3.171875 C 3.722656 -2.523438 3.609375 -2.019531 3.609375 -1.65625 C 3.609375 -1.289062 3.671875 -1.019531 3.796875 -0.84375 C 3.929688 -0.664062 4.179688 -0.578125 4.546875 -0.578125 L 5.3125 -0.640625 C 5.613281 -0.640625 5.765625 -0.519531 5.765625 -0.28125 C 5.765625 0.03125 5.488281 0.1875 4.9375 0.1875 Z M 11.609375 -6.875 L 8.578125 -14.453125 C 7.992188 -12.960938 6.953125 -10.4375 5.453125 -6.875 Z M 11.609375 -6.875 "/>
      </g>
    </g>
  </g>
  <g fill="#000000" fill-opacity="1">
    <g transform="translate(209.484862, 191.834025)">
      <g>
        <path d="M 1.6875 0.1875 C 1.132812 0.1875 0.859375 0.03125 0.859375 -0.28125 C 0.859375 -0.519531 1.015625 -0.640625 1.328125 -0.640625 L 1.9375 -0.578125 C 2.445312 -0.578125 2.789062 -0.863281 2.96875 -1.4375 C 3.113281 -1.914062 3.1875 -2.78125 3.1875 -4.03125 L 3.1875 -12.984375 C 3.1875 -14.234375 3.125 -15.050781 3 -15.4375 C 2.882812 -15.820312 2.742188 -16.082031 2.578125 -16.21875 C 2.421875 -16.351562 2.207031 -16.421875 1.9375 -16.421875 L 1.328125 -16.375 C 1.015625 -16.375 0.859375 -16.5 0.859375 -16.75 C 0.859375 -17.0625 1.09375 -17.21875 1.5625 -17.21875 C 2.03125 -17.21875 2.472656 -17.179688 2.890625 -17.109375 C 3.304688 -17.046875 3.742188 -17.015625 4.203125 -17.015625 C 4.660156 -17.015625 5.097656 -17.046875 5.515625 -17.109375 C 5.929688 -17.179688 6.46875 -17.21875 7.125 -17.21875 C 7.78125 -17.21875 8.484375 -17.109375 9.234375 -16.890625 C 9.992188 -16.679688 10.628906 -16.382812 11.140625 -16 C 12.222656 -15.195312 12.765625 -14.128906 12.765625 -12.796875 C 12.765625 -11.328125 12.15625 -10.054688 10.9375 -8.984375 C 10.550781 -8.648438 10.125 -8.363281 9.65625 -8.125 L 13.78125 -2.140625 C 14.238281 -1.453125 14.75 -1.035156 15.3125 -0.890625 C 15.46875 -0.847656 15.671875 -0.8125 15.921875 -0.78125 C 16.347656 -0.738281 16.5625 -0.597656 16.5625 -0.359375 C 16.5625 -0.117188 16.332031 0 15.875 0 L 13.4375 0 C 12.851562 0 12.320312 -0.378906 11.84375 -1.140625 L 8.640625 -6.265625 C 8.359375 -6.710938 8.082031 -7.03125 7.8125 -7.21875 C 7.550781 -7.40625 7.148438 -7.5 6.609375 -7.5 C 6.066406 -7.5 5.59375 -7.488281 5.1875 -7.46875 L 5.1875 -4.03125 C 5.1875 -2.75 5.238281 -1.921875 5.34375 -1.546875 C 5.457031 -1.179688 5.597656 -0.925781 5.765625 -0.78125 C 5.929688 -0.644531 6.148438 -0.578125 6.421875 -0.578125 L 7.03125 -0.640625 C 7.332031 -0.640625 7.484375 -0.519531 7.484375 -0.28125 C 7.484375 0.03125 7.210938 0.1875 6.671875 0.1875 C 6.398438 0.1875 6.109375 0.160156 5.796875 0.109375 C 4.773438 -0.046875 3.898438 -0.0703125 3.171875 0.03125 C 2.453125 0.132812 1.957031 0.1875 1.6875 0.1875 Z M 5.1875 -8.578125 C 5.726562 -8.523438 6.253906 -8.5 6.765625 -8.5 L 7.5625 -8.5 C 8.382812 -8.5 9.082031 -8.773438 9.65625 -9.328125 C 10.3125 -9.984375 10.640625 -10.875 10.640625 -12 C 10.640625 -13.351562 10.226562 -14.421875 9.40625 -15.203125 C 8.632812 -15.953125 7.644531 -16.328125 6.4375 -16.328125 C 6.007812 -16.328125 5.691406 -16.265625 5.484375 -16.140625 C 5.285156 -16.023438 5.1875 -15.828125 5.1875 -15.546875 Z M 5.1875 -8.578125 "/>
      </g>
    </g>
  </g>
  <g fill="#000000" fill-opacity="1">
    <g transform="translate(239.981349, 191.834025)">
      <g>
        <path d="M 5.203125 0.1875 C 4.648438 0.1875 4.375 0.03125 4.375 -0.28125 C 4.375 -0.519531 4.53125 -0.640625 4.84375 -0.640625 L 5.453125 -0.578125 C 5.960938 -0.578125 6.300781 -0.863281 6.46875 -1.4375 C 6.625 -1.914062 6.703125 -2.78125 6.703125 -4.03125 L 6.703125 -15.890625 L 6.359375 -15.890625 C 4.878906 -15.890625 3.695312 -15.738281 2.8125 -15.4375 C 2.207031 -15.21875 1.796875 -14.84375 1.578125 -14.3125 C 1.410156 -13.914062 1.238281 -13.71875 1.0625 -13.71875 C 0.820312 -13.71875 0.703125 -13.863281 0.703125 -14.15625 C 0.703125 -14.238281 0.71875 -14.332031 0.75 -14.4375 C 0.789062 -14.550781 0.835938 -14.6875 0.890625 -14.84375 C 1.023438 -15.25 1.101562 -15.671875 1.125 -16.109375 C 1.15625 -16.546875 1.207031 -16.835938 1.28125 -16.984375 C 1.351562 -17.140625 1.453125 -17.21875 1.578125 -17.21875 C 1.703125 -17.21875 1.8125 -17.207031 1.90625 -17.1875 C 2.007812 -17.164062 2.160156 -17.140625 2.359375 -17.109375 C 2.867188 -17.046875 3.507812 -17.015625 4.28125 -17.015625 L 12.328125 -17.015625 C 12.953125 -17.015625 13.40625 -17.046875 13.6875 -17.109375 C 13.976562 -17.179688 14.1875 -17.21875 14.3125 -17.21875 C 14.59375 -17.21875 14.734375 -17.085938 14.734375 -16.828125 C 14.734375 -16.691406 14.707031 -16.53125 14.65625 -16.34375 C 14.519531 -15.925781 14.429688 -15.566406 14.390625 -15.265625 C 14.359375 -14.960938 14.328125 -14.71875 14.296875 -14.53125 C 14.265625 -14.34375 14.226562 -14.191406 14.1875 -14.078125 C 14.113281 -13.890625 14.007812 -13.796875 13.875 -13.796875 C 13.738281 -13.796875 13.648438 -13.84375 13.609375 -13.9375 C 13.578125 -14.039062 13.539062 -14.234375 13.5 -14.515625 C 13.457031 -14.796875 13.382812 -15.023438 13.28125 -15.203125 C 13.175781 -15.378906 13.039062 -15.515625 12.875 -15.609375 C 12.570312 -15.796875 12.085938 -15.890625 11.421875 -15.890625 L 8.703125 -15.890625 L 8.703125 -4.03125 C 8.703125 -2.75 8.757812 -1.921875 8.875 -1.546875 C 8.988281 -1.179688 9.125 -0.925781 9.28125 -0.78125 C 9.445312 -0.644531 9.664062 -0.578125 9.9375 -0.578125 L 10.546875 -0.640625 C 10.847656 -0.640625 11 -0.519531 11 -0.28125 C 11 0.03125 10.726562 0.1875 10.1875 0.1875 C 9.914062 0.1875 9.625 0.160156 9.3125 0.109375 C 8.289062 -0.046875 7.414062 -0.0703125 6.6875 0.03125 C 5.96875 0.132812 5.472656 0.1875 5.203125 0.1875 Z M 5.203125 0.1875 "/>
      </g>
    </g>
  </g>
</svg>